<mxfile host="Electron" modified="2023-12-03T07:18:17.339Z" agent="Mozilla/5.0 (Windows NT 10.0; Win64; x64) AppleWebKit/537.36 (KHTML, like Gecko) draw.io/22.1.2 Chrome/114.0.5735.289 Electron/25.9.4 Safari/537.36" etag="zPBiZynHG2QGwQAjT8cP" version="22.1.2" type="device">
  <diagram name="Seite-1" id="zSqDJbW_LelD1mT56Rdw">
    <mxGraphModel dx="780" dy="504" grid="1" gridSize="10" guides="1" tooltips="1" connect="1" arrows="1" fold="1" page="1" pageScale="1" pageWidth="827" pageHeight="1169" math="0" shadow="0">
      <root>
        <mxCell id="0" />
        <mxCell id="1" parent="0" />
        <mxCell id="weL6R8PA8-AbjZUsDltD-11" value="" style="edgeStyle=orthogonalEdgeStyle;rounded=0;orthogonalLoop=1;jettySize=auto;html=1;" parent="1" source="weL6R8PA8-AbjZUsDltD-3" target="weL6R8PA8-AbjZUsDltD-5" edge="1">
          <mxGeometry relative="1" as="geometry" />
        </mxCell>
        <mxCell id="weL6R8PA8-AbjZUsDltD-3" value="Eingabe einer Frage zur ZugÃ¤nglichkeit als natural language prompt" style="whiteSpace=wrap;html=1;aspect=fixed;" parent="1" vertex="1">
          <mxGeometry x="190" y="150" width="100" height="100" as="geometry" />
        </mxCell>
        <mxCell id="weL6R8PA8-AbjZUsDltD-12" value="" style="edgeStyle=orthogonalEdgeStyle;rounded=0;orthogonalLoop=1;jettySize=auto;html=1;" parent="1" source="weL6R8PA8-AbjZUsDltD-5" target="weL6R8PA8-AbjZUsDltD-6" edge="1">
          <mxGeometry relative="1" as="geometry" />
        </mxCell>
        <mxCell id="S3NUVNzmi3w-dYyYIX9--2" value="" style="edgeStyle=orthogonalEdgeStyle;rounded=0;orthogonalLoop=1;jettySize=auto;html=1;" edge="1" parent="1" source="weL6R8PA8-AbjZUsDltD-5" target="S3NUVNzmi3w-dYyYIX9--1">
          <mxGeometry relative="1" as="geometry" />
        </mxCell>
        <mxCell id="weL6R8PA8-AbjZUsDltD-5" value="LLAMA_index query interface" style="whiteSpace=wrap;html=1;aspect=fixed;" parent="1" vertex="1">
          <mxGeometry x="321" y="150" width="100" height="100" as="geometry" />
        </mxCell>
        <mxCell id="weL6R8PA8-AbjZUsDltD-13" value="" style="edgeStyle=orthogonalEdgeStyle;rounded=0;orthogonalLoop=1;jettySize=auto;html=1;" parent="1" source="weL6R8PA8-AbjZUsDltD-6" target="weL6R8PA8-AbjZUsDltD-7" edge="1">
          <mxGeometry relative="1" as="geometry" />
        </mxCell>
        <mxCell id="weL6R8PA8-AbjZUsDltD-6" value="GPT 3.5 Turbo" style="whiteSpace=wrap;html=1;aspect=fixed;" parent="1" vertex="1">
          <mxGeometry x="447" y="150" width="100" height="100" as="geometry" />
        </mxCell>
        <mxCell id="S3NUVNzmi3w-dYyYIX9--6" value="" style="edgeStyle=orthogonalEdgeStyle;rounded=0;orthogonalLoop=1;jettySize=auto;html=1;" edge="1" parent="1" source="weL6R8PA8-AbjZUsDltD-7" target="S3NUVNzmi3w-dYyYIX9--5">
          <mxGeometry relative="1" as="geometry" />
        </mxCell>
        <mxCell id="weL6R8PA8-AbjZUsDltD-7" value="Antwort als natural language text" style="whiteSpace=wrap;html=1;aspect=fixed;" parent="1" vertex="1">
          <mxGeometry x="570" y="150" width="100" height="100" as="geometry" />
        </mxCell>
        <mxCell id="S3NUVNzmi3w-dYyYIX9--1" value="MongoDB" style="shape=cylinder3;whiteSpace=wrap;html=1;boundedLbl=1;backgroundOutline=1;size=15;" vertex="1" parent="1">
          <mxGeometry x="341" y="10" width="60" height="80" as="geometry" />
        </mxCell>
        <mxCell id="S3NUVNzmi3w-dYyYIX9--3" value="Eingabe einer Frage als spoken text" style="whiteSpace=wrap;html=1;aspect=fixed;fillColor=#008a00;fontColor=#ffffff;strokeColor=#005700;" vertex="1" parent="1">
          <mxGeometry x="190" y="270" width="100" height="100" as="geometry" />
        </mxCell>
        <mxCell id="S3NUVNzmi3w-dYyYIX9--4" value="" style="endArrow=classic;html=1;rounded=0;exitX=1;exitY=0.5;exitDx=0;exitDy=0;entryX=0.5;entryY=1;entryDx=0;entryDy=0;fillColor=#008a00;strokeColor=#005700;" edge="1" parent="1" source="S3NUVNzmi3w-dYyYIX9--3" target="weL6R8PA8-AbjZUsDltD-5">
          <mxGeometry width="50" height="50" relative="1" as="geometry">
            <mxPoint x="380" y="160" as="sourcePoint" />
            <mxPoint x="430" y="110" as="targetPoint" />
            <Array as="points">
              <mxPoint x="370" y="320" />
            </Array>
          </mxGeometry>
        </mxCell>
        <mxCell id="S3NUVNzmi3w-dYyYIX9--5" value="Antwort als text_to_speak" style="whiteSpace=wrap;html=1;aspect=fixed;fillColor=#008a00;fontColor=#ffffff;strokeColor=#005700;" vertex="1" parent="1">
          <mxGeometry x="570" y="270" width="100" height="100" as="geometry" />
        </mxCell>
      </root>
    </mxGraphModel>
  </diagram>
</mxfile>
